<mxfile host="app.diagrams.net" modified="2024-01-26T22:26:03.330Z" agent="Mozilla/5.0 (Windows NT 10.0; Win64; x64) AppleWebKit/537.36 (KHTML, like Gecko) Chrome/121.0.0.0 Safari/537.36" etag="pKqzDRkeUbh958pEW-ET" version="23.0.2" type="device">
  <diagram name="Seite-1" id="EOJMiIWB8Vc2h9jgSxAo">
    <mxGraphModel dx="1434" dy="754" grid="1" gridSize="10" guides="1" tooltips="1" connect="1" arrows="1" fold="1" page="1" pageScale="1" pageWidth="1169" pageHeight="827" math="0" shadow="0">
      <root>
        <mxCell id="0" />
        <mxCell id="1" parent="0" />
        <mxCell id="lGCu2KwbvtYzERa8yWbn-7" value="&lt;font style=&quot;font-size: 17px;&quot;&gt;GUI&lt;/font&gt;" style="ellipse;whiteSpace=wrap;html=1;fillColor=#ffe6cc;strokeColor=#d79b00;" vertex="1" parent="1">
          <mxGeometry x="240" y="250" width="120" height="80" as="geometry" />
        </mxCell>
        <mxCell id="lGCu2KwbvtYzERa8yWbn-31" style="edgeStyle=orthogonalEdgeStyle;rounded=0;orthogonalLoop=1;jettySize=auto;html=1;exitX=1;exitY=0.5;exitDx=0;exitDy=0;entryX=0;entryY=0.5;entryDx=0;entryDy=0;" edge="1" parent="1" source="lGCu2KwbvtYzERa8yWbn-11" target="lGCu2KwbvtYzERa8yWbn-30">
          <mxGeometry relative="1" as="geometry" />
        </mxCell>
        <mxCell id="lGCu2KwbvtYzERa8yWbn-11" value="&lt;font style=&quot;font-size: 17px;&quot;&gt;STM32&lt;/font&gt;" style="ellipse;whiteSpace=wrap;html=1;fillColor=#dae8fc;strokeColor=#6c8ebf;" vertex="1" parent="1">
          <mxGeometry x="630" y="250" width="120" height="80" as="geometry" />
        </mxCell>
        <mxCell id="lGCu2KwbvtYzERa8yWbn-12" value="" style="endArrow=none;dashed=1;html=1;rounded=0;exitX=1;exitY=0.5;exitDx=0;exitDy=0;entryX=0;entryY=0.5;entryDx=0;entryDy=0;" edge="1" parent="1" source="lGCu2KwbvtYzERa8yWbn-7" target="lGCu2KwbvtYzERa8yWbn-11">
          <mxGeometry width="50" height="50" relative="1" as="geometry">
            <mxPoint x="370" y="290" as="sourcePoint" />
            <mxPoint x="420" y="240" as="targetPoint" />
          </mxGeometry>
        </mxCell>
        <mxCell id="lGCu2KwbvtYzERa8yWbn-14" value="&lt;font style=&quot;font-size: 17px;&quot;&gt;COM3&lt;/font&gt;" style="text;html=1;strokeColor=none;fillColor=none;align=center;verticalAlign=middle;whiteSpace=wrap;rounded=0;" vertex="1" parent="1">
          <mxGeometry x="455" y="300" width="60" height="30" as="geometry" />
        </mxCell>
        <mxCell id="lGCu2KwbvtYzERa8yWbn-18" style="edgeStyle=orthogonalEdgeStyle;rounded=0;orthogonalLoop=1;jettySize=auto;html=1;exitX=0.5;exitY=1;exitDx=0;exitDy=0;entryX=0.5;entryY=0;entryDx=0;entryDy=0;curved=1;" edge="1" parent="1" source="lGCu2KwbvtYzERa8yWbn-17" target="lGCu2KwbvtYzERa8yWbn-7">
          <mxGeometry relative="1" as="geometry" />
        </mxCell>
        <mxCell id="lGCu2KwbvtYzERa8yWbn-17" value="&lt;font style=&quot;font-size: 17px;&quot;&gt;sendPosition(27.12, -11,40)&lt;/font&gt;" style="rounded=1;whiteSpace=wrap;html=1;" vertex="1" parent="1">
          <mxGeometry x="210" y="150" width="240" height="50" as="geometry" />
        </mxCell>
        <mxCell id="lGCu2KwbvtYzERa8yWbn-21" value="&lt;font style=&quot;font-size: 17px;&quot;&gt;&quot;027.120 &lt;/font&gt;&lt;font style=&quot;font-size: 21px;&quot;&gt;␣&lt;/font&gt;&lt;font style=&quot;font-size: 17px;&quot;&gt; -011.400\n&quot;&lt;/font&gt;" style="text;html=1;strokeColor=none;fillColor=none;align=center;verticalAlign=middle;whiteSpace=wrap;rounded=0;" vertex="1" parent="1">
          <mxGeometry x="400" y="230" width="200" height="70" as="geometry" />
        </mxCell>
        <mxCell id="lGCu2KwbvtYzERa8yWbn-35" style="edgeStyle=orthogonalEdgeStyle;rounded=0;orthogonalLoop=1;jettySize=auto;html=1;exitX=0.5;exitY=1;exitDx=0;exitDy=0;entryX=0.5;entryY=0;entryDx=0;entryDy=0;" edge="1" parent="1" source="lGCu2KwbvtYzERa8yWbn-30" target="lGCu2KwbvtYzERa8yWbn-34">
          <mxGeometry relative="1" as="geometry" />
        </mxCell>
        <mxCell id="lGCu2KwbvtYzERa8yWbn-30" value="&lt;font style=&quot;font-size: 17px;&quot;&gt;UART3-Interrupt&lt;/font&gt;" style="rounded=1;whiteSpace=wrap;html=1;fillColor=#b1ddf0;strokeColor=#10739e;" vertex="1" parent="1">
          <mxGeometry x="800" y="260" width="120" height="60" as="geometry" />
        </mxCell>
        <mxCell id="lGCu2KwbvtYzERa8yWbn-38" style="edgeStyle=orthogonalEdgeStyle;rounded=0;orthogonalLoop=1;jettySize=auto;html=1;exitX=0.5;exitY=1;exitDx=0;exitDy=0;entryX=0.5;entryY=0;entryDx=0;entryDy=0;curved=1;" edge="1" parent="1" source="lGCu2KwbvtYzERa8yWbn-34" target="lGCu2KwbvtYzERa8yWbn-36">
          <mxGeometry relative="1" as="geometry" />
        </mxCell>
        <mxCell id="lGCu2KwbvtYzERa8yWbn-39" style="edgeStyle=orthogonalEdgeStyle;rounded=0;orthogonalLoop=1;jettySize=auto;html=1;exitX=0.5;exitY=1;exitDx=0;exitDy=0;curved=1;" edge="1" parent="1" source="lGCu2KwbvtYzERa8yWbn-34" target="lGCu2KwbvtYzERa8yWbn-37">
          <mxGeometry relative="1" as="geometry" />
        </mxCell>
        <mxCell id="lGCu2KwbvtYzERa8yWbn-34" value="&lt;font style=&quot;font-size: 16px;&quot;&gt;recievePosition&lt;span style=&quot;border-color: var(--border-color); font-family: monospace; text-align: left;&quot; class=&quot;hljs-params&quot;&gt;()&lt;/span&gt;&lt;/font&gt;" style="rounded=1;whiteSpace=wrap;html=1;" vertex="1" parent="1">
          <mxGeometry x="780" y="370" width="160" height="50" as="geometry" />
        </mxCell>
        <mxCell id="lGCu2KwbvtYzERa8yWbn-36" value="&lt;font style=&quot;font-size: 17px;&quot;&gt;azimuth = 27.120&lt;/font&gt;" style="text;html=1;strokeColor=none;fillColor=none;align=center;verticalAlign=middle;whiteSpace=wrap;rounded=0;" vertex="1" parent="1">
          <mxGeometry x="690" y="460" width="140" height="30" as="geometry" />
        </mxCell>
        <mxCell id="lGCu2KwbvtYzERa8yWbn-37" value="&lt;font style=&quot;font-size: 17px;&quot;&gt;elevation = -11.400&lt;/font&gt;" style="text;html=1;strokeColor=none;fillColor=none;align=center;verticalAlign=middle;whiteSpace=wrap;rounded=0;" vertex="1" parent="1">
          <mxGeometry x="880" y="460" width="170" height="30" as="geometry" />
        </mxCell>
      </root>
    </mxGraphModel>
  </diagram>
</mxfile>
